<?xml version="1.0" encoding="UTF-8"?>
<svg width="1024" height="1024" version="1.1" viewBox="0 0 1024 1024" xmlns="http://www.w3.org/2000/svg">
 <rect width="1024" height="1024" fill="#2f2f2f"/>
 <g transform="matrix(4.8205 0 0 4.8205 -225.23 -225.23)">
  <circle cx="153" cy="153" r="100" fill="#ff0050"/>
  <path d="m153 83c-38.66 0-70 31.34-70 70 0 38.66 31.34 70 70 70 38.66 0 70-31.34 70-70 0-38.66-31.34-70-70-70zm-20 100v-60l52.5 30z" fill="#fff"/>
  <circle cx="153" cy="153" r="35" fill="#fff"/>
  <path d="m153 128c-13.81 0-25 11.19-25 25s11.19 25 25 25 25-11.19 25-25-11.19-25-25-25zm0 35c-5.523 0-10-4.477-10-10s4.477-10 10-10 10 4.477 10 10-4.477 10-10 10z" fill="#ff0050"/>
 </g>
</svg>
